PathFileType	4	(X/Y/Z)	D:\TRACE\v60_Jaco2_6-2-23\BothDRS_Motion1_3-v60.trc
DataRate	CameraRate	NumFrames	NumMarkers	Units	OrigDataRate	OrigDataStartFrame	OrigNumFrames
100.00	100.00	      35	9	mm	100.00	6189	      7073
Frame#	Time	front left toe			Front right toe			aft left toe			aft right toe			Arm			FL body			FR body			AL Body			AR Body			
		X1	Y1	Z1	X2	Y2	Z2	X3	Y3	Z3	X4	Y4	Z4	X5	Y5	Z5	X6	Y6	Z6	X7	Y7	Z7	X8	Y8	Z8	X9	Y9	Z9	

6189	61.880	-202.41170	28.25644	-307.15567	198.82317	54.94392	-289.06729	-163.42128	29.04708	334.41376	179.64232	8.56230	314.96237	59.17533	1109.14294	-622.64886	-77.50418	581.62909	-438.54297	81.47408	580.19153	-439.09003	-77.46108	566.07880	507.49628	80.50014	558.49188	508.80502	
6190	61.890	-201.82745	28.47698	-306.98431	199.86058	67.01204	-290.99472	-163.12048	40.43331	331.57690	181.05751	8.73216	314.69247	59.24374	1110.21216	-622.77094	-77.06760	582.41351	-439.41531	82.15829	580.66779	-439.59286	-77.26673	565.48804	506.89935	80.67088	557.97516	508.15717	
6191	61.900	-201.24382	28.70263	-306.99838	202.38661	79.95876	-294.10068	-164.39313	52.21840	327.53491	181.67078	8.33001	314.84570	59.55752	1111.49609	-622.45911	-76.79012	582.84570	-440.01843	82.79662	581.36890	-440.71829	-76.88569	564.52930	506.09641	81.26984	556.80255	507.40784	
6192	61.910	-200.26314	28.67992	-306.91797	204.51237	93.39444	-297.89420	-167.90962	64.06311	323.78149	182.61644	8.05954	314.71384	60.32982	1112.24829	-622.11652	-77.06233	583.50989	-440.86804	83.25217	581.74390	-441.33575	-76.07091	563.17004	505.50336	82.07454	555.68500	506.82224	
6193	61.920	-199.54828	28.47540	-306.97726	206.21223	106.44886	-301.69116	-170.95869	76.50874	319.61008	183.80397	7.77625	314.75287	61.02784	1112.75146	-621.42902	-77.12470	583.97601	-441.66293	83.77624	582.13470	-441.95422	-75.28657	561.65076	505.07483	82.71654	554.26880	506.05084	
6194	61.930	-198.76331	28.28481	-306.80930	207.16502	119.07043	-305.33740	-172.18274	87.44933	316.08450	184.84465	7.59175	314.83939	60.79082	1113.23181	-621.08289	-75.73793	584.11737	-441.75760	84.01091	582.66089	-442.97958	-74.11802	560.40839	504.21954	84.08293	552.83246	505.61462	
6195	61.940	-197.89011	28.57920	-306.84613	207.08835	130.89581	-308.81232	-172.53798	98.20744	313.19165	185.60242	7.42738	314.71912	60.68079	1114.05701	-620.72211	-76.11269	585.02234	-442.72702	84.17941	583.26141	-442.96344	-72.74122	558.30548	503.58334	84.88525	551.72943	504.95471	
6196	61.950	-196.98926	28.66425	-307.01291	206.88486	142.04007	-311.61234	-172.13731	108.79265	309.92752	186.63060	7.26072	314.59705	59.95497	1115.26868	-620.51331	-75.40491	585.15161	-443.01831	85.13309	583.96619	-443.63980	-71.70801	557.37097	503.01141	86.59628	551.06122	503.86389	
6197	61.960	-195.96156	28.58094	-306.89658	207.15263	151.86554	-314.29352	-172.09996	118.55699	307.10812	187.57123	7.12161	314.78143	59.88146	1116.18213	-620.07159	-74.07331	585.47559	-442.99878	85.62163	584.27686	-444.33899	-70.68335	556.50378	502.71402	86.63108	549.83008	503.94083	
6198	61.970	-195.14619	28.55414	-306.83722	207.71982	159.03903	-316.20737	-170.10765	125.35027	305.10770	188.63615	6.85210	314.82092	59.60118	1116.86060	-619.68414	-73.29286	585.71301	-443.19833	86.57487	584.58569	-444.42010	-69.90777	555.56018	502.19800	87.89629	549.06390	503.46274	
6199	61.980	-194.23167	28.58289	-306.65555	208.54509	163.01387	-317.43192	-169.84688	129.05133	303.90405	189.37567	6.51403	314.86014	59.97078	1117.42505	-619.43707	-72.88997	585.69727	-443.18091	86.51211	585.02576	-444.80679	-69.20655	555.19208	502.36041	88.69113	548.43158	503.18448	
6200	61.990	-193.26366	28.52086	-306.66110	207.70634	165.21675	-318.68903	-169.95953	131.05788	302.98492	190.41864	6.54575	314.77676	60.86058	1117.99023	-618.66821	-73.48734	586.40649	-443.83127	86.91901	585.45081	-444.95630	-68.14587	554.71448	502.21219	90.29683	548.02081	502.99872	
6201	62.000	-192.31990	28.83335	-306.43054	208.46796	164.33557	-319.64340	-170.14308	129.98755	302.83798	191.71147	6.37414	314.82358	61.80148	1118.74268	-618.37775	-73.03601	586.81390	-443.74197	87.42531	585.92468	-445.00137	-66.55978	554.41925	502.30182	91.67633	547.68066	502.90170	
6202	62.010	-191.26453	28.78801	-306.37405	208.67690	161.26427	-320.07993	-170.42311	127.41319	303.18399	192.30586	6.08310	314.68539	61.88388	1119.57361	-618.10681	-72.60635	587.26556	-443.54575	87.84139	586.31464	-445.11868	-64.87949	554.33765	502.61197	93.18967	547.52881	502.76883	
6203	62.020	-190.38820	28.97184	-306.20721	208.38907	156.78563	-320.79056	-169.95436	123.75178	304.34183	193.58688	6.28085	314.75424	62.28019	1120.38379	-617.62848	-71.91470	587.34998	-443.44116	87.91158	586.54016	-444.83145	-63.49229	554.00745	502.33411	94.50358	547.34814	502.71017	
6204	62.030	-189.27510	28.63645	-306.12521	208.68352	151.15099	-321.08813	-169.61603	119.00504	305.03989	194.58943	6.08937	314.86090	62.61094	1120.97815	-617.02844	-70.66399	587.24799	-443.14313	88.47431	586.70471	-444.91101	-61.61673	553.27917	502.22653	95.69432	547.31763	502.58176	
6205	62.040	-188.72818	29.33513	-306.21313	207.68398	144.81938	-321.75134	-169.06979	113.53841	305.87808	195.31238	5.66799	314.69669	63.02418	1122.09558	-616.36438	-71.02494	587.80560	-443.35214	89.01414	587.15350	-444.97772	-60.36257	553.05811	502.29758	97.83493	547.26105	501.94818	
6206	62.050	-187.93350	29.61771	-306.08069	206.62654	137.36908	-322.32336	-167.86757	106.22958	306.52655	196.75732	5.79343	314.83163	63.18648	1122.78357	-616.06348	-69.56336	587.68726	-442.85013	89.42480	587.30194	-445.01517	-58.74932	552.89581	502.44977	99.45016	547.16174	501.93613	
6207	62.060	-187.04176	29.65108	-305.90460	205.75156	128.95848	-322.64481	-167.54210	98.29538	307.06317	197.37587	5.69119	314.74310	63.47824	1123.55017	-615.75671	-70.00378	588.31793	-443.17599	89.97855	587.51288	-444.99692	-56.89629	552.95703	502.55814	101.20517	546.99561	501.98483	
6208	62.070	-186.08218	29.67547	-305.74249	204.92502	119.28871	-323.11499	-168.40643	90.35170	307.42401	198.19907	5.45797	314.78815	64.64056	1124.06189	-615.19543	-69.64368	588.52484	-442.66617	90.61044	587.72766	-444.95865	-55.77401	552.49976	503.03662	102.58523	546.85083	502.02966	
6209	62.080	-185.21957	29.80973	-305.71790	204.30511	108.88379	-323.37299	-168.99316	81.71104	307.54437	199.77341	5.30859	314.83096	65.85516	1124.62012	-614.42902	-69.03255	588.57770	-442.36832	91.10215	587.71631	-444.95844	-54.04532	552.05206	503.10077	103.83805	546.53882	501.91333	
6210	62.090	-184.48549	30.02691	-305.66498	203.46777	97.85155	-323.26047	-168.82945	72.93105	307.94736	200.45911	5.15621	314.86960	66.98240	1125.45764	-613.80762	-67.61665	588.49365	-442.00510	91.47325	587.77759	-444.99023	-52.69312	551.90955	503.18604	105.64832	546.29181	501.91238	
6211	62.100	-183.09071	29.74047	-305.59348	202.59555	87.31760	-323.08398	-168.37741	64.61829	308.27719	201.55902	5.10575	314.75427	68.26321	1126.33264	-613.31085	-68.04991	588.95001	-442.31042	91.99218	587.79736	-445.02078	-51.53504	551.71173	503.03302	109.07084	546.22687	501.76605	
6212	62.110	-182.09630	29.66956	-305.45163	201.68839	77.90562	-322.94693	-165.92149	54.42352	309.20572	202.64789	5.03835	314.73770	69.93895	1127.15369	-612.42725	-67.77789	589.01257	-442.27075	92.50460	587.89313	-444.95898	-49.33326	551.90399	503.44110	110.93418	546.03564	501.85632	
6213	62.120	-181.52109	29.95026	-305.35132	201.37241	68.40503	-322.87149	-165.97589	46.34052	309.73169	203.63477	4.77115	314.83411	70.90428	1127.96887	-612.07324	-67.12209	589.20343	-441.99869	93.85897	588.09637	-445.25497	-48.25671	551.56543	503.58698	110.17313	545.58295	501.68973	
6214	62.130	-180.54988	30.16565	-305.37625	201.54088	59.52709	-322.27695	-165.28738	38.27738	310.92776	204.67166	4.67992	314.90787	72.96381	1128.90027	-611.09204	-66.60628	589.27631	-441.74973	94.04409	587.91528	-445.25464	-46.93609	551.45825	503.55344	108.21781	543.97076	499.54843	
6215	62.140	-179.62004	30.27692	-305.24405	202.16664	51.55320	-321.71960	-164.14285	30.18185	311.82404	205.75291	4.63432	314.92926	74.55114	1129.46228	-610.82648	-66.17982	589.32477	-441.55597	94.13095	587.83575	-445.06662	-45.50852	551.05988	503.74249	109.78314	543.40338	499.57944	
6216	62.150	-178.70340	30.20530	-305.08893	202.69220	44.09699	-320.67337	-163.03172	23.12530	312.95691	206.62994	4.48755	314.87878	76.20855	1130.28687	-610.12457	-64.66727	589.26825	-441.25790	94.92059	587.91357	-445.35370	-44.23746	550.80127	503.77362	111.28545	543.17487	499.50644	
6217	62.160	-177.52663	30.05696	-304.96164	203.77945	37.82892	-319.91125	-162.10690	16.76523	313.53665	207.60628	4.16804	314.86954	78.70690	1131.05261	-609.20764	-63.99961	589.35168	-441.06741	95.29933	587.94446	-445.49164	-42.79094	550.81836	503.77432	112.56216	542.88062	499.52078	
6218	62.170	-176.54805	30.28996	-305.04550	204.30501	33.67946	-320.55936	-161.29987	10.57451	314.19949	208.52414	4.13891	314.89868	79.96948	1132.01758	-608.77869	-64.63197	590.00275	-441.63147	95.92242	588.06445	-445.58923	-41.09893	550.56573	503.74701	114.34021	542.66827	499.55118	
6219	62.180	-175.91974	30.60872	-305.01028	206.23430	30.95810	-320.49475	-160.44322	4.71768	314.35199	209.71683	4.13478	314.86264	81.94056	1132.81458	-608.00677	-63.93689	590.17706	-441.53543	96.74970	588.36200	-445.50443	-39.68819	550.29004	503.97958	115.27472	542.30774	499.51028	
6220	62.190	-174.29576	30.47000	-304.86533	207.77238	30.97879	-322.27505	-160.10226	4.77986	312.27618	210.41231	3.92984	314.94312	83.72688	1133.81567	-607.37061	-63.42189	590.92377	-441.09393	97.49668	588.91541	-445.50070	-38.81708	550.32111	503.89316	116.56935	542.16553	499.43079	
6221	62.200	-173.29297	30.76805	-304.71741	208.48366	31.66602	-321.79623	-159.44429	1.87110	312.80487	211.38481	4.08773	314.79163	85.12962	1135.08435	-606.77612	-62.01230	591.40875	-440.73984	97.31063	589.80731	-445.20981	-37.03543	551.43884	504.17166	117.83717	543.15436	499.38965	
6222	62.210	-172.16415	31.54788	-304.74707	208.77802	31.63812	-321.19937	-158.49234	3.47539	313.39877	212.34666	4.96768	314.51505	86.45038	1136.89050	-605.79669	-61.08857	592.18854	-440.39117	98.40642	590.50714	-445.34131	-35.66501	553.20142	504.28360	119.42132	544.49176	499.41376	
6223	62.220	-170.54883	35.62703	-304.40625	209.27101	31.21466	-320.55145	-156.82539	2.30892	314.19250	212.58075	7.94053	315.29575	87.11366	1138.94214	-605.75909	-61.47929	593.42633	-440.57111	98.79943	591.34460	-445.65775	-33.88229	554.02301	504.26868	121.31001	545.26288	499.51154	
